<?xml version="1.0" encoding="UTF-8" standalone="no"?>
<!DOCTYPE svg PUBLIC "-//W3C//DTD SVG 1.1//EN" "http://www.w3.org/Graphics/SVG/1.1/DTD/svg11.dtd">
<svg width="100%" height="100%" viewBox="0 0 1006 328" version="1.1" xmlns="http://www.w3.org/2000/svg" xmlns:xlink="http://www.w3.org/1999/xlink" xml:space="preserve" xmlns:serif="http://www.serif.com/" style="fill-rule:evenodd;clip-rule:evenodd;stroke-linejoin:round;stroke-miterlimit:2;">
    <g transform="matrix(1,0,0,1,-803.967347,-2657.116907)">
        <g transform="matrix(1.504883,0,0,1.504883,547,2352)">
            <path d="M259.577,205.891C312.325,195.764 358.55,226.234 377.163,264.669C414.675,342.133 349.521,423.547 274.479,418.76C184.815,413.041 143.92,311.28 192.825,247.755C220.421,211.91 254.566,207.043 259.577,205.891Z" style="fill:none;stroke:black;stroke-width:2.35px;"/>
        </g>
        <g transform="matrix(1.504883,0,0,1.504883,547,2352)">
            <path d="M306.729,298.511C306.597,299.158 306.117,298.768 305.993,299.377C305.744,300.594 306.415,299.294 307.605,299.058C348.481,290.056 372.492,317.307 328.833,349.95C300.052,371.469 278.057,374.437 282.702,377.252C284.923,378.598 299.651,383.932 295.414,385.227C293.376,385.849 280.37,376.884 277.717,378.892C277.334,379.182 269.724,384.941 271.987,380.713C273.225,378.399 278.851,377.781 273.681,375.181C261.835,369.226 249.647,359.638 247.536,360.577C237.759,364.924 238.181,367.086 227.501,366.492C225.423,366.376 225.338,364.642 227.458,364.34C228.951,364.127 244.889,361.854 245.373,358.483C245.551,357.238 194.741,324.286 205.242,293.403C208.138,284.886 219.599,279.957 227.561,281.194C228.061,281.271 235.332,282.4 233.183,284.092C232.692,284.479 209.407,279.085 207.978,300.531C206.39,324.36 246.023,358.038 249.379,355.328C256.223,349.802 268.164,330.233 265.258,328.982C262.96,327.993 245.115,328.9 243.366,328.988C233.142,329.508 244.317,326.593 244.528,326.545C247.977,325.755 247.133,324.099 247.302,269.499C247.363,249.683 248.185,245.81 243.329,244.961C227.088,242.119 247.135,243.138 247.498,243.157C250.67,243.318 267.951,241.841 256.824,244.98C253.018,246.054 254.364,247.814 253.933,318.502C253.877,327.697 257.294,326.681 266.467,326.327C273.278,326.063 285.103,241.998 320.518,243.091C334.456,243.521 348.916,267.548 308.138,297.311C307.342,297.892 307.451,297.896 306.729,298.511ZM301.357,303.051C291.885,306.67 291.36,306.45 291.224,305.624C290.787,302.969 307.222,301.086 322.101,277.26C336.966,253.457 324.446,237.798 308.589,249.616C294.313,260.255 290.833,284.102 275.65,322.56C273.645,327.637 277.141,326.762 282.539,325.683C291.081,323.975 290.172,315.356 292.188,319.602C292.221,319.672 290.612,328.075 288.452,328.228C282.316,328.663 273.251,328.275 272.494,329.495C270.124,333.313 270.882,333.678 264.934,342.778C255.623,357.027 248.674,356.572 253.285,359.78C255.273,361.162 276.867,376.183 279.606,374.719C289.975,369.178 359.687,334.689 342.064,307.8C338.317,302.083 330.632,300.76 329.488,300.563C319.366,298.82 303.556,302.534 301.357,303.051Z" style="fill:rgb(32,21,18);stroke:black;stroke-width:0.66px;"/>
        </g>
        <g transform="matrix(1.504883,0,0,1.504883,547,2352)">
            <path d="M670.093,312.499C670.072,293.561 670.32,289.853 669.128,287.692C668.186,285.983 664.959,285.985 664.321,285.692C658.898,283.193 667.608,284.813 679.507,283.883C710.26,281.48 708.34,298.487 707.285,301.429C704.709,308.611 699.314,309.04 697.627,309.766C691.457,312.419 709.988,309.719 711.261,324.516C712.988,344.571 678.008,339.302 666.513,340.323C663.541,340.587 664.065,338.552 665.399,338.3C671.329,337.182 670.106,333.708 670.093,312.499ZM693.609,308.751C694.287,308.364 699.133,305.599 700.008,301.387C703.679,283.696 677.973,283.622 676.882,288.59C676.579,289.968 676.641,308.059 676.704,308.465C677.021,310.5 689.163,310.213 693.609,308.751ZM693.424,312.79C692.243,312.581 688.767,311.965 678.435,312.223C676.349,312.275 676.542,313.565 676.648,331.499C676.672,335.698 676.798,338.912 691.524,337.672C700.33,336.93 713.564,322.163 693.424,312.79Z" style="fill:rgb(33,22,19);stroke:black;stroke-width:0.66px;"/>
        </g>
        <g transform="matrix(1.504883,0,0,1.504883,547,2352)">
            <path d="M505.31,338.897C474.171,319.408 499.697,289.662 521.508,294.45C559.279,302.741 540.577,353.847 505.31,338.897ZM499.137,321.566C506.525,350.51 531.834,338.738 533.845,326.566C540.501,286.265 494.264,286.986 499.137,321.566Z" style="fill:rgb(32,21,18);stroke:black;stroke-width:0.66px;"/>
        </g>
        <g transform="matrix(1.504883,0,0,1.504883,547,2352)">
            <path d="M641.501,339.95C638.77,340.046 607.36,341.149 607.341,339.515C607.318,337.566 612.817,339.837 612.896,333.518C613.321,299.833 613.749,299.157 611.29,297.676C611.164,297.601 606.853,297.141 607.697,295.624C607.729,295.565 641.47,294.356 642.576,296.448C643.743,298.655 643.977,304.262 642.636,304.032C640.028,303.585 643.023,297.99 633.491,297.714C623.341,297.421 619.343,297.304 619.295,299.481C618.937,315.56 619.626,315.928 620.708,316.003C634.365,316.941 635.595,314.25 636.117,313.109C638.807,307.226 637.938,316.19 637.908,316.495C637.77,317.922 638.826,322.738 637.59,322.823C635.441,322.97 637.101,318.386 631.511,318.363C627.861,318.348 619.738,317.839 619.302,319.446C619.277,319.539 618.947,333.812 619.492,335.503C620.654,339.11 638.877,339.564 643.177,334.183C645.36,331.452 646.441,327.905 646.805,331.403C646.846,331.801 644.716,339.02 644.368,339.366C643.247,340.48 643.085,339.844 641.501,339.95Z" style="fill:rgb(40,29,26);stroke:black;stroke-width:0.66px;"/>
        </g>
        <g transform="matrix(1.504883,0,0,1.504883,547,2352)">
            <path d="M833.506,339.959C830.788,340.052 799.556,341.126 799.523,339.497C799.48,337.363 804.862,339.958 805.075,333.488C805.165,330.764 806.082,302.953 804.711,299.417C803.68,296.758 795.617,296.384 800.38,295.258C801.402,295.017 801.317,295.373 813.501,295.303C830.718,295.204 834.066,295.25 834.518,297.496C834.613,297.966 836.262,306.15 833.589,303.419C831.65,301.436 833.52,297.948 824.492,297.755C816.332,297.58 811.268,296.636 811.275,300.497C811.288,307.522 810.694,315.998 812.715,316.05C825.122,316.368 825.84,316.365 827.751,312.644C829.97,308.324 829.253,313.655 829.576,318.501C829.598,318.826 830.133,326.844 827.926,322.224C825.646,317.451 824.48,318.336 813.492,318.422C810.32,318.447 811.196,323.826 811.21,333.506C811.217,338.872 817.187,338.16 826.529,337.787C837.463,337.349 835.935,328.804 838.326,330.719C838.826,331.121 838.895,331.331 836.675,338.571C836.088,340.485 835.492,339.761 833.506,339.959Z" style="fill:rgb(38,27,24);stroke:black;stroke-width:0.66px;"/>
        </g>
        <g transform="matrix(1.504883,0,0,1.504883,547,2352)">
            <path d="M450.503,339.937C446.287,339.929 437.523,341.147 440.557,338.586C441.413,337.864 445.542,339.584 445.665,332.502C446.392,290.736 446.527,290.482 444.592,287.44C443.815,286.219 436.062,285.374 440.586,283.876C441.793,283.477 441.787,285.112 456.474,283.821C458.093,283.679 459.231,285.429 456.397,286.167C451.219,287.515 452.469,289.644 452.384,328.5C452.379,330.943 451.166,337.709 456.464,337.814C474.79,338.176 476.111,338.042 480.349,330.34C483.124,325.297 481.76,339.709 478.578,339.925C466.881,340.719 452.747,340.044 450.503,339.937Z" style="fill:rgb(34,23,21);stroke:black;stroke-width:0.66px;"/>
        </g>
        <g transform="matrix(1.504883,0,0,1.504883,547,2352)">
            <path d="M572.598,337.45C571.577,335.202 560.721,311.317 559.806,309.367C555.447,300.078 556.265,298.821 551.626,297.219C548.648,296.19 550.433,294.841 551.546,294.966C566.207,296.614 566.718,294.482 567.402,295.551C568.624,297.461 563.163,296.181 562.942,299.513C562.776,301.997 576.468,331.101 576.7,331.139C577.837,331.327 589.372,304.708 590.554,301.516C592.573,296.063 585.383,297.869 586.67,295.606C586.887,295.224 599.632,295.37 599.639,295.38C601.303,297.862 596.259,295.593 593.76,300.655C590.443,307.373 591.054,307.581 576.092,339.273C574.283,343.103 572.654,337.583 572.598,337.45Z" style="fill:rgb(35,24,21);stroke:black;stroke-width:0.66px;"/>
        </g>
        <g transform="matrix(1.504883,0,0,1.504883,547,2352)">
            <path d="M769.503,339.87C767.254,340.059 760.031,340.984 761.797,338.766C762.951,337.315 767.035,340.193 767.329,333.495C767.451,330.704 768.79,300.174 766.447,298.591C766.265,298.468 754.892,296.835 752.902,301.91C752.794,302.186 751.011,306.734 750.357,304.599C750.116,303.815 751.194,295.68 753.512,295.624C756.335,295.556 787.335,294.81 788.805,296.127C790.395,297.551 791.828,312.07 788.161,301.885C786.56,297.44 773.485,296.619 773.438,300.497C773.029,334.924 772.476,335.394 774.681,337.353C774.943,337.586 783.091,339.68 778.465,340.365C778.398,340.375 770.22,339.911 769.503,339.87Z" style="fill:rgb(33,21,18);stroke:black;stroke-width:0.66px;"/>
        </g>
        <g transform="matrix(1.504883,0,0,1.504883,547,2352)">
            <path d="M733.501,295.776C740.324,295.122 741.663,295.093 741.512,296.504C741.264,298.828 735.994,295.403 735.843,302.509C735.117,336.599 735.928,337.51 738.708,338.203C749.577,340.912 735.796,339.932 735.506,339.911C731.812,339.648 715.61,341.442 727.145,338.163C729.7,337.437 729.902,336.502 729.82,303.5C729.802,296.287 726.65,298.352 724.698,297.158C720.905,294.839 732.79,295.723 733.501,295.776Z" style="fill:rgb(36,25,22);stroke:black;stroke-width:0.66px;"/>
        </g>
        <g transform="matrix(1.504883,0,0,1.504883,547,2352)">
            <path d="M306.729,298.511L307.605,299.058C306.415,299.294 305.744,300.594 305.993,299.377C306.117,298.768 306.597,299.158 306.729,298.511Z" style="fill:rgb(92,83,80);stroke:black;stroke-width:0.66px;"/>
        </g>
    </g>
</svg>
