<?xml version="1.0" encoding="UTF-8" standalone="no"?>
<!DOCTYPE svg PUBLIC "-//W3C//DTD SVG 1.1//EN" "http://www.w3.org/Graphics/SVG/1.1/DTD/svg11.dtd">
<svg width="100%" height="100%" viewBox="0 0 365 408" version="1.1" xmlns="http://www.w3.org/2000/svg" xmlns:xlink="http://www.w3.org/1999/xlink" xml:space="preserve" xmlns:serif="http://www.serif.com/" style="fill-rule:evenodd;clip-rule:evenodd;stroke-linejoin:round;stroke-miterlimit:2;">
    <g id="Artboard1" transform="matrix(1,0,0,1,12,41)">
        <rect x="-12" y="-41" width="365" height="408" style="fill:none;"/>
        <g transform="matrix(1,0,0,1,-803.967347,-2657.116907)">
            <g transform="matrix(1.504883,0,0,1.504883,547,2352)">
                <path d="M259.577,205.891C312.325,195.764 358.55,226.234 377.163,264.669C414.675,342.133 349.521,423.547 274.479,418.76C184.815,413.041 143.92,311.28 192.825,247.755C220.421,211.91 254.566,207.043 259.577,205.891Z" style="fill:none;stroke:black;stroke-width:2.35px;"/>
            </g>
            <g transform="matrix(1.504883,0,0,1.504883,547,2352)">
                <path d="M306.729,298.511C306.597,299.158 306.117,298.768 305.993,299.377C305.744,300.594 306.415,299.294 307.605,299.058C348.481,290.056 372.492,317.307 328.833,349.95C300.052,371.469 278.057,374.437 282.702,377.252C284.923,378.598 299.651,383.932 295.414,385.227C293.376,385.849 280.37,376.884 277.717,378.892C277.334,379.182 269.724,384.941 271.987,380.713C273.225,378.399 278.851,377.781 273.681,375.181C261.835,369.226 249.647,359.638 247.536,360.577C237.759,364.924 238.181,367.086 227.501,366.492C225.423,366.376 225.338,364.642 227.458,364.34C228.951,364.127 244.889,361.854 245.373,358.483C245.551,357.238 194.741,324.286 205.242,293.403C208.138,284.886 219.599,279.957 227.561,281.194C228.061,281.271 235.332,282.4 233.183,284.092C232.692,284.479 209.407,279.085 207.978,300.531C206.39,324.36 246.023,358.038 249.379,355.328C256.223,349.802 268.164,330.233 265.258,328.982C262.96,327.993 245.115,328.9 243.366,328.988C233.142,329.508 244.317,326.593 244.528,326.545C247.977,325.755 247.133,324.099 247.302,269.499C247.363,249.683 248.185,245.81 243.329,244.961C227.088,242.119 247.135,243.138 247.498,243.157C250.67,243.318 267.951,241.841 256.824,244.98C253.018,246.054 254.364,247.814 253.933,318.502C253.877,327.697 257.294,326.681 266.467,326.327C273.278,326.063 285.103,241.998 320.518,243.091C334.456,243.521 348.916,267.548 308.138,297.311C307.342,297.892 307.451,297.896 306.729,298.511ZM301.357,303.051C291.885,306.67 291.36,306.45 291.224,305.624C290.787,302.969 307.222,301.086 322.101,277.26C336.966,253.457 324.446,237.798 308.589,249.616C294.313,260.255 290.833,284.102 275.65,322.56C273.645,327.637 277.141,326.762 282.539,325.683C291.081,323.975 290.172,315.356 292.188,319.602C292.221,319.672 290.612,328.075 288.452,328.228C282.316,328.663 273.251,328.275 272.494,329.495C270.124,333.313 270.882,333.678 264.934,342.778C255.623,357.027 248.674,356.572 253.285,359.78C255.273,361.162 276.867,376.183 279.606,374.719C289.975,369.178 359.687,334.689 342.064,307.8C338.317,302.083 330.632,300.76 329.488,300.563C319.366,298.82 303.556,302.534 301.357,303.051Z" style="fill:rgb(32,21,18);stroke:black;stroke-width:0.66px;"/>
            </g>
            <g transform="matrix(1.504883,0,0,1.504883,547,2352)">
                <path d="M306.729,298.511L307.605,299.058C306.415,299.294 305.744,300.594 305.993,299.377C306.117,298.768 306.597,299.158 306.729,298.511Z" style="fill:rgb(92,83,80);stroke:black;stroke-width:0.66px;"/>
            </g>
        </g>
    </g>
</svg>
